 <svg width="70px" height="66px" viewBox="23 15 70 66" version="1.1" xmlns="http://www.w3.org/2000/svg" xmlns:xlink="http://www.w3.org/1999/xlink">
        <g id="Page-1" stroke="none" stroke-width="1" fill="none" fill-rule="evenodd" transform="translate(23.000000, 15.000000)">
            <path d="M47.9161413,62.8981472 C47.8828442,62.8875056 44.4421448,61.7134451 42.191225,59.4436682 C39.960138,57.194624 38.8285827,54.9635605 38.8285827,52.8141436 L38.8285827,30.2690262 C38.8285827,30.0123438 38.8811666,27.7640335 40.6921281,27.7640335 C42.0249215,27.7640335 42.5514886,30.3679196 42.5593125,30.3664518 L43.8009483,46.6484453 C43.8528045,47.335745 44.4406892,47.8568158 45.1350154,47.8001218 C45.8180607,47.7478312 46.3313453,47.1451138 46.2780336,46.4548785 L45.0220236,30.0626161 C44.7278084,28.2786827 43.4847169,25.2584905 40.6921281,25.2584905 C37.2528843,25.2584905 36.3445833,28.5366494 36.3445833,30.2690262 L36.3445833,52.8141436 C36.3445833,55.652328 37.721227,58.4784029 40.434849,61.2154923 C43.0951592,63.8993736 46.9674471,65.221132 47.1308394,65.2754408 C47.2616624,65.3200254 47.3944869,65.3392903 47.5238543,65.3392903 C48.044235,65.3392903 48.5289533,65.0073829 48.7023529,64.4828261 C48.9197848,63.8270843 48.5673451,63.117584 47.9161413,62.8981472" id="Fill-13" fill="#FEFEFE"></path>
            <path d="M29.5128572,25.2584905 C26.7209961,25.2584905 25.4771769,28.2786827 25.1694973,30.1721511 L23.9271337,46.4548785 C23.8738219,47.1451138 24.3869246,47.7478312 25.0699699,47.8001218 C25.7408244,47.8518619 26.3521808,47.3372128 26.4040369,46.6484453 L27.6329362,30.4754363 C27.637121,30.4480984 28.1653257,27.7640335 29.5128572,27.7640335 C31.2604996,27.7640335 31.3722177,29.8554722 31.3764026,30.2690262 L31.3764026,52.8141436 C31.3764026,54.9635605 30.2448473,57.194624 28.0139422,59.4436682 C25.775759,61.7013357 22.3214133,62.8875056 22.2873884,62.899615 C21.6378222,63.1203362 21.2866561,63.829286 21.5033601,64.4842939 C21.6774876,65.0073829 22.1623878,65.3392903 22.681131,65.3392903 C22.811954,65.3392903 22.9433229,65.3185576 23.0741459,65.2754408 C23.2377201,65.221132 27.1098261,63.8993736 29.7701363,61.2154923 C32.4837583,58.4784029 33.860402,55.652328 33.860402,52.8141436 L33.860402,30.2690262 C33.860402,28.5366494 32.952101,25.2584905 29.5128572,25.2584905" id="Fill-15" fill="#FEFEFE"></path>
            <path d="M69.3851232,63.0852923 L54.4658429,51.8022755 C53.6796313,51.2237769 52.8288269,49.176189 52.4785706,47.6188479 L48.7414725,22.5085579 C48.470547,21.1411141 48.2147234,19.8180713 47.9674516,18.5458514 C45.7512845,7.11091678 44.4135784,0.208380442 40.0709463,0.208380442 C37.4590351,0.208380442 36.3445833,1.33216862 36.3445833,3.96596116 C36.3445833,6.49021876 37.5400035,22.1830721 37.590404,22.8503729 C37.6431699,23.5384065 38.2416078,24.0550739 38.9244711,24.0027833 C39.6075163,23.9504928 40.120801,23.3477753 40.0674892,22.6575401 C40.0552985,22.4947972 38.8293105,6.39481143 38.8293105,3.96596116 C38.8293105,2.71392352 38.8527822,2.71392352 40.0709463,2.71392352 C42.3680817,2.71392352 43.9033869,10.6371347 45.5302137,19.026741 C45.7762118,20.3017131 46.033491,21.6284253 46.2956829,22.9391751 L50.0378756,48.0804725 C50.1359474,48.5162271 51.0477054,52.3899479 52.9894899,53.8168378 L67.894578,65.0892131 C68.1185601,65.2583776 68.3800241,65.3400242 68.6387589,65.3400242 C69.0161259,65.3400242 69.3900359,65.1673737 69.6338506,64.8391358 C70.0446967,64.2850394 69.9337064,63.4995803 69.3851232,63.0852923" id="Fill-17" fill="#FEFEFE"></path>
            <path d="M30.134039,0.208380442 C25.7914069,0.208380442 24.4537008,7.11091678 22.2377157,18.5451175 C21.9909897,19.8180713 21.7351661,21.1403802 21.4529596,22.568004 L17.7229576,47.6474701 C17.5268141,49.2070129 16.5622901,51.2790031 15.7251321,51.8123667 L0.820044043,63.0852923 C0.270551062,63.4995803 0.160470515,64.2850394 0.57113464,64.8384019 C0.814949406,65.1666398 1.18885937,65.3392903 1.5662264,65.3392903 C1.82496117,65.3392903 2.08660717,65.2583776 2.31040729,65.0892131 L17.1287046,53.8764674 C18.8445055,52.7956125 19.9682369,49.7080848 20.1829394,47.9894686 L23.8985673,22.9993551 C24.1714943,21.6276914 24.4289554,20.3009792 24.6747716,19.0260071 C26.3017803,10.6371347 27.8369036,2.71318962 30.134039,2.71318962 C31.352203,2.71318962 31.3756748,2.71318962 31.3756748,3.96596116 C31.3756748,6.39426101 30.1496868,22.4942468 30.137678,22.6568062 C30.0843663,23.3470414 30.5967412,23.9497589 31.2805142,24.0020494 C31.9557356,24.0537895 32.5605418,23.5391404 32.6145813,22.8503729 C32.6649818,22.1823382 33.8598561,6.48948486 33.8598561,3.96596116 C33.860402,1.33216862 32.7459501,0.208380442 30.134039,0.208380442" id="Fill-25" fill="#FEFEFE"></path>
        </g>
    </svg>